# xmcd CD database file
#
# Track frame offsets:
#	187
#	12995
#	22182
#	32985
#	48505
#	59495
#	69470
#	76847
#	84470
#	98842
#	110820
#	124590
#	133977
#	150637
#
# Disc length: 2113 seconds
#
# Revision: 3
# Processed by: cddbd v1.5.2PL0 Copyright (c) Steve Scherf et al.
# Submitted via: CDex 1.51
#
DISCID=bf083f0e
DTITLE=J.J. Cale - Grasshopper
DYEAR=1981
DGENRE=Blues
TTITLE0=City Girls
TTITLE1=Devil In Disguise
TTITLE2=One Step Ahead Of The Blues
TTITLE3=You Keep Me Hangin' On
TTITLE4=Downtown L.A.
TTITLE5=Can't Live Here
TTITLE6=Grasshopper
TTITLE7=Drifters Wife
TTITLE8=Don't Wait
TTITLE9=A Thing Going On
TTITLE10=Nobody But You
TTITLE11=Mississippi River
TTITLE12=Does Your Mama Like To Reggae
TTITLE13=Dr. Jive
EXTD=(c)1981 Audigram Nashville\n(p) Audie Ashworth and J. J. Cale YEAR: 1981
EXTT0=
EXTT1=
EXTT2=
EXTT3=
EXTT4=
EXTT5=
EXTT6=
EXTT7=
EXTT8=
EXTT9=
EXTT10=
EXTT11=
EXTT12=
EXTT13=
PLAYORDER=
